<mxfile host="app.diagrams.net" modified="2024-01-02T15:53:54.214Z" agent="Mozilla/5.0 (Windows NT 10.0; Win64; x64) AppleWebKit/537.36 (KHTML, like Gecko) Chrome/119.0.0.0 Safari/537.36 OPR/105.0.0.0" etag="3s8VEPWcM8QklntYv9Ls" version="22.1.16" type="device">
  <diagram name="Page-1" id="xr-6lOxqDbVQiCkjv1bu">
    <mxGraphModel dx="2007" dy="701" grid="1" gridSize="10" guides="1" tooltips="1" connect="1" arrows="1" fold="1" page="1" pageScale="1" pageWidth="827" pageHeight="1169" math="0" shadow="0">
      <root>
        <mxCell id="0" />
        <mxCell id="1" parent="0" />
        <mxCell id="6irWC2_6p6o8d9v7BcCe-123" value="" style="rounded=0;whiteSpace=wrap;html=1;fillColor=#dae8fc;strokeColor=#6c8ebf;" vertex="1" parent="1">
          <mxGeometry x="-40" y="10" width="930" height="780" as="geometry" />
        </mxCell>
        <mxCell id="6irWC2_6p6o8d9v7BcCe-2" value="USER" style="swimlane;whiteSpace=wrap;html=1;fillColor=#ffff88;strokeColor=#36393d;spacing=2;fontColor=#000000;fontStyle=1" vertex="1" parent="1">
          <mxGeometry x="150" y="50" width="279" height="160" as="geometry" />
        </mxCell>
        <mxCell id="6irWC2_6p6o8d9v7BcCe-4" value="User_ID" style="text;html=1;align=center;verticalAlign=middle;resizable=0;points=[];autosize=1;strokeColor=none;fillColor=none;spacing=2;fontColor=#000000;fontStyle=1" vertex="1" parent="6irWC2_6p6o8d9v7BcCe-2">
          <mxGeometry x="-3" y="30" width="70" height="30" as="geometry" />
        </mxCell>
        <mxCell id="6irWC2_6p6o8d9v7BcCe-5" value="Username" style="text;html=1;align=center;verticalAlign=middle;resizable=0;points=[];autosize=1;strokeColor=none;fillColor=none;spacing=2;fontColor=#000000;fontStyle=1" vertex="1" parent="6irWC2_6p6o8d9v7BcCe-2">
          <mxGeometry x="-3" y="50" width="80" height="30" as="geometry" />
        </mxCell>
        <mxCell id="6irWC2_6p6o8d9v7BcCe-6" value="Password" style="text;html=1;align=center;verticalAlign=middle;resizable=0;points=[];autosize=1;strokeColor=none;fillColor=none;spacing=2;fontColor=#000000;fontStyle=1" vertex="1" parent="6irWC2_6p6o8d9v7BcCe-2">
          <mxGeometry x="-3" y="70" width="80" height="30" as="geometry" />
        </mxCell>
        <mxCell id="6irWC2_6p6o8d9v7BcCe-7" value="Email" style="text;html=1;align=center;verticalAlign=middle;resizable=0;points=[];autosize=1;strokeColor=none;fillColor=none;spacing=2;fontColor=#000000;fontStyle=1" vertex="1" parent="6irWC2_6p6o8d9v7BcCe-2">
          <mxGeometry x="-4" y="90" width="60" height="30" as="geometry" />
        </mxCell>
        <mxCell id="6irWC2_6p6o8d9v7BcCe-8" value="Profile_Picture_Path" style="text;html=1;align=center;verticalAlign=middle;resizable=0;points=[];autosize=1;strokeColor=none;fillColor=none;spacing=2;fontColor=#000000;fontStyle=1" vertex="1" parent="6irWC2_6p6o8d9v7BcCe-2">
          <mxGeometry x="-5" y="110" width="140" height="30" as="geometry" />
        </mxCell>
        <mxCell id="6irWC2_6p6o8d9v7BcCe-9" value="User_Role_ID" style="text;html=1;align=center;verticalAlign=middle;resizable=0;points=[];autosize=1;strokeColor=none;fillColor=none;spacing=2;fontColor=#000000;fontStyle=1" vertex="1" parent="6irWC2_6p6o8d9v7BcCe-2">
          <mxGeometry x="-1" y="130" width="100" height="30" as="geometry" />
        </mxCell>
        <mxCell id="6irWC2_6p6o8d9v7BcCe-10" value="RÃ´le" style="swimlane;whiteSpace=wrap;html=1;fillColor=#e51400;fontColor=#000000;strokeColor=#B20000;spacing=2;fontStyle=1" vertex="1" parent="1">
          <mxGeometry x="540" y="60" width="160" height="80" as="geometry" />
        </mxCell>
        <mxCell id="6irWC2_6p6o8d9v7BcCe-11" value="Role_ID" style="text;html=1;align=center;verticalAlign=middle;resizable=0;points=[];autosize=1;strokeColor=none;fillColor=none;spacing=2;fontColor=#000000;fontStyle=1" vertex="1" parent="6irWC2_6p6o8d9v7BcCe-10">
          <mxGeometry y="30" width="70" height="30" as="geometry" />
        </mxCell>
        <mxCell id="6irWC2_6p6o8d9v7BcCe-17" value="Role_Name" style="text;html=1;align=center;verticalAlign=middle;resizable=0;points=[];autosize=1;strokeColor=none;fillColor=none;spacing=2;fontColor=#000000;fontStyle=1" vertex="1" parent="6irWC2_6p6o8d9v7BcCe-10">
          <mxGeometry y="50" width="90" height="30" as="geometry" />
        </mxCell>
        <mxCell id="6irWC2_6p6o8d9v7BcCe-18" value="Categorie" style="swimlane;whiteSpace=wrap;html=1;fillColor=#6d8764;fontColor=#000000;strokeColor=#3A5431;spacing=2;fontStyle=1" vertex="1" parent="1">
          <mxGeometry x="338.5" y="650" width="200" height="90" as="geometry" />
        </mxCell>
        <mxCell id="6irWC2_6p6o8d9v7BcCe-19" value="Categorie_ID" style="text;html=1;align=center;verticalAlign=middle;resizable=0;points=[];autosize=1;strokeColor=none;fillColor=none;spacing=2;fontColor=#000000;fontStyle=1" vertex="1" parent="6irWC2_6p6o8d9v7BcCe-18">
          <mxGeometry x="-5" y="40" width="100" height="30" as="geometry" />
        </mxCell>
        <mxCell id="6irWC2_6p6o8d9v7BcCe-20" value="Categorie_Name" style="text;html=1;align=center;verticalAlign=middle;resizable=0;points=[];autosize=1;strokeColor=none;fillColor=none;spacing=2;fontColor=#000000;fontStyle=1" vertex="1" parent="6irWC2_6p6o8d9v7BcCe-18">
          <mxGeometry x="-5" y="60" width="120" height="30" as="geometry" />
        </mxCell>
        <mxCell id="6irWC2_6p6o8d9v7BcCe-25" value="Serie_Categorie" style="swimlane;whiteSpace=wrap;html=1;fillColor=#bac8d3;strokeColor=#23445d;spacing=2;fontColor=#000000;fontStyle=1" vertex="1" parent="1">
          <mxGeometry x="340" y="450" width="200" height="104" as="geometry" />
        </mxCell>
        <mxCell id="6irWC2_6p6o8d9v7BcCe-26" value="SerieXCategorie_ID" style="text;html=1;align=center;verticalAlign=middle;resizable=0;points=[];autosize=1;strokeColor=none;fillColor=none;spacing=2;fontColor=#000000;fontStyle=1" vertex="1" parent="6irWC2_6p6o8d9v7BcCe-25">
          <mxGeometry x="-6" y="35" width="130" height="30" as="geometry" />
        </mxCell>
        <mxCell id="6irWC2_6p6o8d9v7BcCe-70" value="SerieXCategorie_Categorie_ID" style="text;html=1;align=center;verticalAlign=middle;resizable=0;points=[];autosize=1;strokeColor=none;fillColor=none;spacing=2;fontColor=#000000;fontStyle=1" vertex="1" parent="6irWC2_6p6o8d9v7BcCe-25">
          <mxGeometry x="-14" y="56" width="200" height="30" as="geometry" />
        </mxCell>
        <mxCell id="6irWC2_6p6o8d9v7BcCe-71" value="SerieXCategorie_Serie_ID" style="text;html=1;align=center;verticalAlign=middle;resizable=0;points=[];autosize=1;strokeColor=none;fillColor=none;spacing=2;fontColor=#000000;fontStyle=1" vertex="1" parent="6irWC2_6p6o8d9v7BcCe-25">
          <mxGeometry x="-11" y="74" width="170" height="30" as="geometry" />
        </mxCell>
        <mxCell id="6irWC2_6p6o8d9v7BcCe-32" value="Episode" style="swimlane;whiteSpace=wrap;html=1;fillColor=#1ba1e2;strokeColor=#006EAF;fontColor=#000000;spacing=2;fontStyle=1" vertex="1" parent="1">
          <mxGeometry x="600" y="210" width="200" height="180" as="geometry" />
        </mxCell>
        <mxCell id="6irWC2_6p6o8d9v7BcCe-33" value="Episode_ID" style="text;html=1;align=center;verticalAlign=middle;resizable=0;points=[];autosize=1;strokeColor=none;fillColor=none;spacing=2;fontColor=#000000;fontStyle=1" vertex="1" parent="6irWC2_6p6o8d9v7BcCe-32">
          <mxGeometry y="30" width="90" height="30" as="geometry" />
        </mxCell>
        <mxCell id="6irWC2_6p6o8d9v7BcCe-34" value="Episode_Title" style="text;html=1;align=center;verticalAlign=middle;resizable=0;points=[];autosize=1;strokeColor=none;fillColor=none;spacing=2;fontColor=#000000;fontStyle=1" vertex="1" parent="6irWC2_6p6o8d9v7BcCe-32">
          <mxGeometry y="50" width="100" height="30" as="geometry" />
        </mxCell>
        <mxCell id="6irWC2_6p6o8d9v7BcCe-35" value="Episode_Synopsis" style="text;html=1;align=center;verticalAlign=middle;resizable=0;points=[];autosize=1;strokeColor=none;fillColor=none;spacing=2;fontColor=#000000;fontStyle=1" vertex="1" parent="6irWC2_6p6o8d9v7BcCe-32">
          <mxGeometry x="-2" y="70" width="130" height="30" as="geometry" />
        </mxCell>
        <mxCell id="6irWC2_6p6o8d9v7BcCe-36" value="Episode_Duree" style="text;html=1;align=center;verticalAlign=middle;resizable=0;points=[];autosize=1;strokeColor=none;fillColor=none;spacing=2;fontColor=#000000;fontStyle=1" vertex="1" parent="6irWC2_6p6o8d9v7BcCe-32">
          <mxGeometry y="90" width="110" height="30" as="geometry" />
        </mxCell>
        <mxCell id="6irWC2_6p6o8d9v7BcCe-38" value="Episode_Path" style="text;html=1;align=center;verticalAlign=middle;resizable=0;points=[];autosize=1;strokeColor=none;fillColor=none;spacing=2;fontColor=#000000;fontStyle=1" vertex="1" parent="6irWC2_6p6o8d9v7BcCe-32">
          <mxGeometry x="1" y="130" width="100" height="30" as="geometry" />
        </mxCell>
        <mxCell id="6irWC2_6p6o8d9v7BcCe-40" value="Episode_Image_Path" style="text;html=1;align=center;verticalAlign=middle;resizable=0;points=[];autosize=1;strokeColor=none;fillColor=none;spacing=2;fontColor=#000000;fontStyle=1" vertex="1" parent="6irWC2_6p6o8d9v7BcCe-32">
          <mxGeometry y="150" width="140" height="30" as="geometry" />
        </mxCell>
        <mxCell id="6irWC2_6p6o8d9v7BcCe-49" value="Episode_Saison_ID" style="text;html=1;align=center;verticalAlign=middle;resizable=0;points=[];autosize=1;strokeColor=none;fillColor=none;spacing=2;fontColor=#000000;fontStyle=1" vertex="1" parent="6irWC2_6p6o8d9v7BcCe-32">
          <mxGeometry x="1" y="110" width="130" height="30" as="geometry" />
        </mxCell>
        <mxCell id="6irWC2_6p6o8d9v7BcCe-41" value="Film" style="swimlane;whiteSpace=wrap;html=1;startSize=30;fillColor=#60a917;fontColor=#000000;strokeColor=#2D7600;spacing=2;fontStyle=1" vertex="1" parent="1">
          <mxGeometry x="50" y="430" width="200" height="180" as="geometry" />
        </mxCell>
        <mxCell id="6irWC2_6p6o8d9v7BcCe-42" value="Film_ID" style="text;html=1;align=center;verticalAlign=middle;resizable=0;points=[];autosize=1;strokeColor=none;fillColor=none;spacing=2;fontColor=#000000;fontStyle=1" vertex="1" parent="6irWC2_6p6o8d9v7BcCe-41">
          <mxGeometry x="-2" y="30" width="70" height="30" as="geometry" />
        </mxCell>
        <mxCell id="6irWC2_6p6o8d9v7BcCe-43" value="Film_Title" style="text;html=1;align=center;verticalAlign=middle;resizable=0;points=[];autosize=1;strokeColor=none;fillColor=none;spacing=2;fontColor=#000000;fontStyle=1" vertex="1" parent="6irWC2_6p6o8d9v7BcCe-41">
          <mxGeometry y="50" width="80" height="30" as="geometry" />
        </mxCell>
        <mxCell id="6irWC2_6p6o8d9v7BcCe-44" value="Film_Synopsis" style="text;html=1;align=center;verticalAlign=middle;resizable=0;points=[];autosize=1;strokeColor=none;fillColor=none;spacing=2;fontColor=#000000;fontStyle=1" vertex="1" parent="6irWC2_6p6o8d9v7BcCe-41">
          <mxGeometry x="-2" y="70" width="110" height="30" as="geometry" />
        </mxCell>
        <mxCell id="6irWC2_6p6o8d9v7BcCe-45" value="Film_Duree" style="text;html=1;align=center;verticalAlign=middle;resizable=0;points=[];autosize=1;strokeColor=none;fillColor=none;spacing=2;fontColor=#000000;fontStyle=1" vertex="1" parent="6irWC2_6p6o8d9v7BcCe-41">
          <mxGeometry y="90" width="90" height="30" as="geometry" />
        </mxCell>
        <mxCell id="6irWC2_6p6o8d9v7BcCe-46" value="Film_Tags" style="text;html=1;align=center;verticalAlign=middle;resizable=0;points=[];autosize=1;strokeColor=none;fillColor=none;spacing=2;fontColor=#000000;fontStyle=1" vertex="1" parent="6irWC2_6p6o8d9v7BcCe-41">
          <mxGeometry y="110" width="80" height="30" as="geometry" />
        </mxCell>
        <mxCell id="6irWC2_6p6o8d9v7BcCe-47" value="Film_Path" style="text;html=1;align=center;verticalAlign=middle;resizable=0;points=[];autosize=1;strokeColor=none;fillColor=none;spacing=2;fontColor=#000000;fontStyle=1" vertex="1" parent="6irWC2_6p6o8d9v7BcCe-41">
          <mxGeometry y="130" width="80" height="30" as="geometry" />
        </mxCell>
        <mxCell id="6irWC2_6p6o8d9v7BcCe-48" value="Film_Image_Path" style="text;html=1;align=center;verticalAlign=middle;resizable=0;points=[];autosize=1;strokeColor=none;fillColor=none;spacing=2;fontColor=#000000;fontStyle=1" vertex="1" parent="6irWC2_6p6o8d9v7BcCe-41">
          <mxGeometry y="150" width="120" height="30" as="geometry" />
        </mxCell>
        <mxCell id="6irWC2_6p6o8d9v7BcCe-50" value="Saison" style="swimlane;whiteSpace=wrap;html=1;fillColor=#0050ef;fontColor=#000000;strokeColor=#001DBC;spacing=2;fontStyle=1" vertex="1" parent="1">
          <mxGeometry x="600" y="416" width="200" height="110" as="geometry" />
        </mxCell>
        <mxCell id="6irWC2_6p6o8d9v7BcCe-51" value="Saison_ID" style="text;html=1;align=center;verticalAlign=middle;resizable=0;points=[];autosize=1;strokeColor=none;fillColor=none;spacing=2;fontColor=#000000;fontStyle=1" vertex="1" parent="6irWC2_6p6o8d9v7BcCe-50">
          <mxGeometry y="30" width="80" height="30" as="geometry" />
        </mxCell>
        <mxCell id="6irWC2_6p6o8d9v7BcCe-52" value="Saison_Name" style="text;html=1;align=center;verticalAlign=middle;resizable=0;points=[];autosize=1;strokeColor=none;fillColor=none;spacing=2;fontColor=#000000;fontStyle=1" vertex="1" parent="6irWC2_6p6o8d9v7BcCe-50">
          <mxGeometry y="50" width="100" height="30" as="geometry" />
        </mxCell>
        <mxCell id="6irWC2_6p6o8d9v7BcCe-53" value="Saison_Serie_ID" style="text;html=1;align=center;verticalAlign=middle;resizable=0;points=[];autosize=1;strokeColor=none;fillColor=none;spacing=2;fontColor=#000000;fontStyle=1" vertex="1" parent="6irWC2_6p6o8d9v7BcCe-50">
          <mxGeometry x="-3" y="75" width="120" height="30" as="geometry" />
        </mxCell>
        <mxCell id="6irWC2_6p6o8d9v7BcCe-58" value="User_Film" style="swimlane;whiteSpace=wrap;html=1;fillColor=#fa6800;fontColor=#000000;strokeColor=#C73500;spacing=2;fontStyle=1" vertex="1" parent="1">
          <mxGeometry x="140" y="265" width="160" height="140" as="geometry" />
        </mxCell>
        <mxCell id="6irWC2_6p6o8d9v7BcCe-59" value="ID" style="text;html=1;align=center;verticalAlign=middle;resizable=0;points=[];autosize=1;strokeColor=none;fillColor=none;spacing=2;fontColor=#000000;fontStyle=1" vertex="1" parent="6irWC2_6p6o8d9v7BcCe-58">
          <mxGeometry x="-2" y="30" width="40" height="30" as="geometry" />
        </mxCell>
        <mxCell id="6irWC2_6p6o8d9v7BcCe-60" value="UserXFilm_User_ID" style="text;html=1;align=center;verticalAlign=middle;resizable=0;points=[];autosize=1;strokeColor=none;fillColor=none;spacing=2;fontColor=#000000;fontStyle=1" vertex="1" parent="6irWC2_6p6o8d9v7BcCe-58">
          <mxGeometry x="1" y="50" width="130" height="30" as="geometry" />
        </mxCell>
        <mxCell id="6irWC2_6p6o8d9v7BcCe-61" value="UserXFilm_Film_ID" style="text;html=1;align=center;verticalAlign=middle;resizable=0;points=[];autosize=1;strokeColor=none;fillColor=none;spacing=2;fontColor=#000000;fontStyle=1" vertex="1" parent="6irWC2_6p6o8d9v7BcCe-58">
          <mxGeometry y="70" width="130" height="30" as="geometry" />
        </mxCell>
        <mxCell id="6irWC2_6p6o8d9v7BcCe-62" value="UserXFilm_Aime" style="text;html=1;align=center;verticalAlign=middle;resizable=0;points=[];autosize=1;strokeColor=none;fillColor=none;spacing=2;fontColor=#000000;fontStyle=1" vertex="1" parent="6irWC2_6p6o8d9v7BcCe-58">
          <mxGeometry x="-2" y="90" width="120" height="30" as="geometry" />
        </mxCell>
        <mxCell id="6irWC2_6p6o8d9v7BcCe-63" value="UserXFilm_WatchTime" style="text;html=1;align=center;verticalAlign=middle;resizable=0;points=[];autosize=1;strokeColor=none;fillColor=none;spacing=2;fontColor=#000000;fontStyle=1" vertex="1" parent="6irWC2_6p6o8d9v7BcCe-58">
          <mxGeometry x="-1" y="110" width="150" height="30" as="geometry" />
        </mxCell>
        <mxCell id="6irWC2_6p6o8d9v7BcCe-64" value="User_Episode" style="swimlane;whiteSpace=wrap;html=1;fillColor=#a0522d;fontColor=#000000;strokeColor=#6D1F00;spacing=2;fontStyle=1" vertex="1" parent="1">
          <mxGeometry x="350" y="265" width="177" height="140" as="geometry" />
        </mxCell>
        <mxCell id="6irWC2_6p6o8d9v7BcCe-65" value="ID" style="text;html=1;align=center;verticalAlign=middle;resizable=0;points=[];autosize=1;strokeColor=none;fillColor=none;spacing=2;fontColor=#000000;fontStyle=1" vertex="1" parent="6irWC2_6p6o8d9v7BcCe-64">
          <mxGeometry x="-8" y="30" width="40" height="30" as="geometry" />
        </mxCell>
        <mxCell id="6irWC2_6p6o8d9v7BcCe-66" value="UserXEpisode_User_ID" style="text;html=1;align=center;verticalAlign=middle;resizable=0;points=[];autosize=1;strokeColor=none;fillColor=none;spacing=2;fontColor=#000000;fontStyle=1" vertex="1" parent="6irWC2_6p6o8d9v7BcCe-64">
          <mxGeometry x="-11" y="50" width="160" height="30" as="geometry" />
        </mxCell>
        <mxCell id="6irWC2_6p6o8d9v7BcCe-67" value="UserXEpisode_Episode_ID" style="text;html=1;align=center;verticalAlign=middle;resizable=0;points=[];autosize=1;strokeColor=none;fillColor=none;spacing=2;fontColor=#000000;fontStyle=1" vertex="1" parent="6irWC2_6p6o8d9v7BcCe-64">
          <mxGeometry x="-11" y="70" width="180" height="30" as="geometry" />
        </mxCell>
        <mxCell id="6irWC2_6p6o8d9v7BcCe-68" value="UserXEpisode_Aime" style="text;html=1;align=center;verticalAlign=middle;resizable=0;points=[];autosize=1;strokeColor=none;fillColor=none;spacing=2;fontColor=#000000;fontStyle=1" vertex="1" parent="6irWC2_6p6o8d9v7BcCe-64">
          <mxGeometry x="-8" y="90" width="140" height="30" as="geometry" />
        </mxCell>
        <mxCell id="6irWC2_6p6o8d9v7BcCe-69" value="UserXEpisode_WatchTime" style="text;html=1;align=center;verticalAlign=middle;resizable=0;points=[];autosize=1;strokeColor=none;fillColor=none;spacing=2;fontColor=#000000;fontStyle=1" vertex="1" parent="6irWC2_6p6o8d9v7BcCe-64">
          <mxGeometry x="-6" y="110" width="170" height="30" as="geometry" />
        </mxCell>
        <mxCell id="6irWC2_6p6o8d9v7BcCe-28" value="Film_Categorie" style="swimlane;whiteSpace=wrap;html=1;fillColor=#e3c800;fontColor=#000000;strokeColor=#B09500;spacing=2;fontStyle=1" vertex="1" parent="1">
          <mxGeometry x="50" y="650" width="200" height="100" as="geometry" />
        </mxCell>
        <mxCell id="6irWC2_6p6o8d9v7BcCe-29" value="FilmXCategorie_ID" style="text;html=1;align=center;verticalAlign=middle;resizable=0;points=[];autosize=1;strokeColor=none;fillColor=none;spacing=2;fontColor=#000000;fontStyle=1" vertex="1" parent="6irWC2_6p6o8d9v7BcCe-28">
          <mxGeometry y="30" width="130" height="30" as="geometry" />
        </mxCell>
        <mxCell id="6irWC2_6p6o8d9v7BcCe-72" value="FilmXCategorie_Categorie_ID" style="text;html=1;align=center;verticalAlign=middle;resizable=0;points=[];autosize=1;strokeColor=none;fillColor=none;spacing=2;fontColor=#000000;fontStyle=1" vertex="1" parent="6irWC2_6p6o8d9v7BcCe-28">
          <mxGeometry y="50" width="190" height="30" as="geometry" />
        </mxCell>
        <mxCell id="6irWC2_6p6o8d9v7BcCe-73" value="FilmXCategorie_Film_ID" style="text;html=1;align=center;verticalAlign=middle;resizable=0;points=[];autosize=1;strokeColor=none;fillColor=none;spacing=2;fontColor=#000000;fontStyle=1" vertex="1" parent="6irWC2_6p6o8d9v7BcCe-28">
          <mxGeometry y="70" width="160" height="30" as="geometry" />
        </mxCell>
        <mxCell id="6irWC2_6p6o8d9v7BcCe-82" value="" style="edgeStyle=elbowEdgeStyle;rounded=0;orthogonalLoop=1;jettySize=auto;html=1;fillColor=#dae8fc;strokeColor=#6c8ebf;entryX=0.025;entryY=0.459;entryDx=0;entryDy=0;entryPerimeter=0;spacing=2;fontColor=#000000;fontStyle=1" edge="1" parent="1" source="6irWC2_6p6o8d9v7BcCe-9" target="6irWC2_6p6o8d9v7BcCe-11">
          <mxGeometry relative="1" as="geometry">
            <mxPoint x="520" y="100" as="targetPoint" />
            <Array as="points">
              <mxPoint x="460" y="150" />
            </Array>
          </mxGeometry>
        </mxCell>
        <mxCell id="6irWC2_6p6o8d9v7BcCe-126" value="1,N" style="edgeLabel;html=1;align=center;verticalAlign=middle;resizable=0;points=[];" vertex="1" connectable="0" parent="6irWC2_6p6o8d9v7BcCe-82">
          <mxGeometry x="0.6902" y="1" relative="1" as="geometry">
            <mxPoint x="-23" y="17" as="offset" />
          </mxGeometry>
        </mxCell>
        <mxCell id="6irWC2_6p6o8d9v7BcCe-101" value="" style="edgeStyle=orthogonalEdgeStyle;rounded=0;orthogonalLoop=1;jettySize=auto;html=1;fillColor=#f8cecc;strokeColor=#b85450;spacing=2;fontColor=#000000;fontStyle=1" edge="1" parent="1" target="6irWC2_6p6o8d9v7BcCe-33">
          <mxGeometry relative="1" as="geometry">
            <mxPoint x="530" y="350" as="sourcePoint" />
            <mxPoint x="590" y="240" as="targetPoint" />
            <Array as="points">
              <mxPoint x="560" y="350" />
              <mxPoint x="560" y="255" />
            </Array>
          </mxGeometry>
        </mxCell>
        <mxCell id="6irWC2_6p6o8d9v7BcCe-104" value="" style="edgeStyle=orthogonalEdgeStyle;rounded=0;orthogonalLoop=1;jettySize=auto;html=1;fillColor=#008a00;strokeColor=#005700;spacing=2;fontColor=#000000;fontStyle=1" edge="1" parent="1" target="6irWC2_6p6o8d9v7BcCe-4">
          <mxGeometry relative="1" as="geometry">
            <mxPoint x="140" y="330" as="sourcePoint" />
            <mxPoint x="143" y="95" as="targetPoint" />
            <Array as="points">
              <mxPoint x="100" y="330" />
              <mxPoint x="100" y="95" />
            </Array>
          </mxGeometry>
        </mxCell>
        <mxCell id="6irWC2_6p6o8d9v7BcCe-92" value="" style="edgeStyle=orthogonalEdgeStyle;rounded=0;orthogonalLoop=1;jettySize=auto;html=1;fillColor=#f8cecc;strokeColor=#b85450;elbow=vertical;jumpSize=6;spacing=2;fontColor=#000000;fontStyle=1" edge="1" parent="1" source="6irWC2_6p6o8d9v7BcCe-66" target="6irWC2_6p6o8d9v7BcCe-4">
          <mxGeometry relative="1" as="geometry">
            <mxPoint x="330" y="329" as="sourcePoint" />
            <mxPoint x="140" y="90" as="targetPoint" />
            <Array as="points">
              <mxPoint x="320" y="329" />
              <mxPoint x="320" y="240" />
              <mxPoint x="51" y="240" />
              <mxPoint x="51" y="90" />
            </Array>
          </mxGeometry>
        </mxCell>
        <mxCell id="6irWC2_6p6o8d9v7BcCe-110" value="" style="edgeStyle=orthogonalEdgeStyle;rounded=0;orthogonalLoop=1;jettySize=auto;html=1;entryX=0;entryY=0.25;entryDx=0;entryDy=0;fillColor=#008a00;strokeColor=#005700;spacing=2;fontColor=#000000;fontStyle=1" edge="1" parent="1" source="6irWC2_6p6o8d9v7BcCe-61" target="6irWC2_6p6o8d9v7BcCe-41">
          <mxGeometry relative="1" as="geometry">
            <mxPoint x="20" y="470" as="targetPoint" />
            <Array as="points">
              <mxPoint x="10" y="350" />
              <mxPoint x="10" y="475" />
            </Array>
          </mxGeometry>
        </mxCell>
        <mxCell id="6irWC2_6p6o8d9v7BcCe-114" value="" style="edgeStyle=orthogonalEdgeStyle;rounded=0;orthogonalLoop=1;jettySize=auto;html=1;fillColor=#6a00ff;strokeColor=#3700CC;spacing=2;fontColor=#000000;fontStyle=1" edge="1" parent="1">
          <mxGeometry relative="1" as="geometry">
            <mxPoint x="600" y="335" as="sourcePoint" />
            <mxPoint x="600" y="460" as="targetPoint" />
            <Array as="points">
              <mxPoint x="600" y="336" />
              <mxPoint x="570" y="336" />
              <mxPoint x="570" y="460" />
            </Array>
          </mxGeometry>
        </mxCell>
        <mxCell id="6irWC2_6p6o8d9v7BcCe-54" value="Serie" style="swimlane;whiteSpace=wrap;html=1;fillColor=#b1ddf0;strokeColor=#10739e;spacing=2;fontColor=#000000;fontStyle=1" vertex="1" parent="1">
          <mxGeometry x="600" y="560" width="200" height="100" as="geometry" />
        </mxCell>
        <mxCell id="6irWC2_6p6o8d9v7BcCe-55" value="Serie_ID" style="text;html=1;align=center;verticalAlign=middle;resizable=0;points=[];autosize=1;strokeColor=none;fillColor=none;spacing=2;fontColor=#000000;fontStyle=1" vertex="1" parent="6irWC2_6p6o8d9v7BcCe-54">
          <mxGeometry y="25" width="70" height="30" as="geometry" />
        </mxCell>
        <mxCell id="6irWC2_6p6o8d9v7BcCe-56" value="Serie_Title" style="text;html=1;align=center;verticalAlign=middle;resizable=0;points=[];autosize=1;strokeColor=none;fillColor=none;spacing=2;fontColor=#000000;fontStyle=1" vertex="1" parent="6irWC2_6p6o8d9v7BcCe-54">
          <mxGeometry y="50" width="80" height="30" as="geometry" />
        </mxCell>
        <mxCell id="6irWC2_6p6o8d9v7BcCe-57" value="Serie_Tags" style="text;html=1;align=center;verticalAlign=middle;resizable=0;points=[];autosize=1;strokeColor=none;fillColor=none;spacing=2;fontColor=#000000;fontStyle=1" vertex="1" parent="6irWC2_6p6o8d9v7BcCe-54">
          <mxGeometry x="-5" y="70" width="90" height="30" as="geometry" />
        </mxCell>
        <mxCell id="6irWC2_6p6o8d9v7BcCe-115" value="" style="edgeStyle=orthogonalEdgeStyle;rounded=0;orthogonalLoop=1;jettySize=auto;html=1;fillColor=#fa6800;strokeColor=#C73500;spacing=2;fontColor=#000000;fontStyle=1" edge="1" parent="1">
          <mxGeometry relative="1" as="geometry">
            <mxPoint x="600" y="510" as="sourcePoint" />
            <mxPoint x="600" y="595" as="targetPoint" />
            <Array as="points">
              <mxPoint x="600" y="510" />
              <mxPoint x="570" y="510" />
              <mxPoint x="570" y="595" />
            </Array>
          </mxGeometry>
        </mxCell>
        <mxCell id="6irWC2_6p6o8d9v7BcCe-116" value="" style="edgeStyle=orthogonalEdgeStyle;rounded=0;orthogonalLoop=1;jettySize=auto;html=1;fillColor=#e51400;strokeColor=#B20000;spacing=2;fontColor=#000000;fontStyle=1" edge="1" parent="1">
          <mxGeometry relative="1" as="geometry">
            <mxPoint x="340" y="520" as="sourcePoint" />
            <mxPoint x="330" y="700" as="targetPoint" />
            <Array as="points">
              <mxPoint x="340" y="520" />
              <mxPoint x="310" y="520" />
              <mxPoint x="310" y="700" />
            </Array>
          </mxGeometry>
        </mxCell>
        <mxCell id="6irWC2_6p6o8d9v7BcCe-117" value="" style="edgeStyle=orthogonalEdgeStyle;rounded=0;orthogonalLoop=1;jettySize=auto;html=1;fillColor=#e51400;strokeColor=#B20000;entryX=0.025;entryY=0.589;entryDx=0;entryDy=0;entryPerimeter=0;spacing=2;fontColor=#000000;fontStyle=1" edge="1" parent="1" target="6irWC2_6p6o8d9v7BcCe-55">
          <mxGeometry relative="1" as="geometry">
            <mxPoint x="340" y="540" as="sourcePoint" />
            <mxPoint x="520" y="590" as="targetPoint" />
            <Array as="points">
              <mxPoint x="320" y="540" />
              <mxPoint x="320" y="600" />
              <mxPoint x="596" y="600" />
              <mxPoint x="596" y="603" />
            </Array>
          </mxGeometry>
        </mxCell>
        <mxCell id="6irWC2_6p6o8d9v7BcCe-119" value="" style="edgeStyle=orthogonalEdgeStyle;rounded=0;orthogonalLoop=1;jettySize=auto;html=1;entryX=-0.017;entryY=-0.022;entryDx=0;entryDy=0;entryPerimeter=0;spacing=2;fontColor=#000000;fontStyle=1" edge="1" parent="1" target="6irWC2_6p6o8d9v7BcCe-43">
          <mxGeometry relative="1" as="geometry">
            <mxPoint x="49" y="740" as="sourcePoint" />
            <mxPoint x="40" y="480" as="targetPoint" />
            <Array as="points">
              <mxPoint y="740" />
              <mxPoint y="479" />
            </Array>
          </mxGeometry>
        </mxCell>
        <mxCell id="6irWC2_6p6o8d9v7BcCe-122" value="" style="edgeStyle=orthogonalEdgeStyle;rounded=0;orthogonalLoop=1;jettySize=auto;html=1;spacing=2;fontColor=#000000;fontStyle=1;entryX=0.047;entryY=-0.005;entryDx=0;entryDy=0;entryPerimeter=0;" edge="1" parent="1" target="6irWC2_6p6o8d9v7BcCe-20">
          <mxGeometry relative="1" as="geometry">
            <mxPoint x="240" y="715" as="sourcePoint" />
            <mxPoint x="330" y="710" as="targetPoint" />
            <Array as="points">
              <mxPoint x="320" y="715" />
              <mxPoint x="320" y="710" />
            </Array>
          </mxGeometry>
        </mxCell>
        <mxCell id="6irWC2_6p6o8d9v7BcCe-131" value="1,N" style="edgeLabel;html=1;align=center;verticalAlign=middle;resizable=0;points=[];" vertex="1" connectable="0" parent="1">
          <mxGeometry x="559.9966666666664" y="390" as="geometry">
            <mxPoint x="9" y="4" as="offset" />
          </mxGeometry>
        </mxCell>
        <mxCell id="6irWC2_6p6o8d9v7BcCe-133" value="1,N" style="edgeLabel;html=1;align=center;verticalAlign=middle;resizable=0;points=[];" vertex="1" connectable="0" parent="1">
          <mxGeometry x="559.9966666666664" y="550" as="geometry">
            <mxPoint x="9" y="4" as="offset" />
          </mxGeometry>
        </mxCell>
        <mxCell id="6irWC2_6p6o8d9v7BcCe-135" value="N,N" style="edgeLabel;html=1;align=center;verticalAlign=middle;resizable=0;points=[];" vertex="1" connectable="0" parent="1">
          <mxGeometry x="549.9966666666664" y="300" as="geometry">
            <mxPoint x="9" y="4" as="offset" />
          </mxGeometry>
        </mxCell>
        <mxCell id="6irWC2_6p6o8d9v7BcCe-136" value="N,N" style="edgeLabel;html=1;align=center;verticalAlign=middle;resizable=0;points=[];" vertex="1" connectable="0" parent="1">
          <mxGeometry x="120" y="170" as="geometry">
            <mxPoint x="-16" y="15" as="offset" />
          </mxGeometry>
        </mxCell>
        <mxCell id="6irWC2_6p6o8d9v7BcCe-134" value="N,N" style="edgeLabel;html=1;align=center;verticalAlign=middle;resizable=0;points=[];" vertex="1" connectable="0" parent="1">
          <mxGeometry x="249.99666666666644" y="230" as="geometry">
            <mxPoint x="9" y="9" as="offset" />
          </mxGeometry>
        </mxCell>
        <mxCell id="6irWC2_6p6o8d9v7BcCe-139" value="N,N" style="edgeLabel;html=1;align=center;verticalAlign=middle;resizable=0;points=[];" vertex="1" connectable="0" parent="1">
          <mxGeometry x="-0.0033333333335576754" y="350" as="geometry">
            <mxPoint x="9" y="9" as="offset" />
          </mxGeometry>
        </mxCell>
        <mxCell id="6irWC2_6p6o8d9v7BcCe-140" value="N,N" style="edgeLabel;html=1;align=center;verticalAlign=middle;resizable=0;points=[];" vertex="1" connectable="0" parent="1">
          <mxGeometry x="-10.003333333333558" y="580" as="geometry">
            <mxPoint x="9" y="9" as="offset" />
          </mxGeometry>
        </mxCell>
        <mxCell id="6irWC2_6p6o8d9v7BcCe-141" value="N,N" style="edgeLabel;html=1;align=center;verticalAlign=middle;resizable=0;points=[];" vertex="1" connectable="0" parent="1">
          <mxGeometry x="439.99666666666644" y="590" as="geometry">
            <mxPoint x="9" y="9" as="offset" />
          </mxGeometry>
        </mxCell>
        <mxCell id="6irWC2_6p6o8d9v7BcCe-143" value="N,N" style="edgeLabel;html=1;align=center;verticalAlign=middle;resizable=0;points=[];" vertex="1" connectable="0" parent="1">
          <mxGeometry x="299.99666666666644" y="620" as="geometry">
            <mxPoint x="9" y="9" as="offset" />
          </mxGeometry>
        </mxCell>
      </root>
    </mxGraphModel>
  </diagram>
</mxfile>
